<svg id="Group_19" data-name="Group 19" xmlns="http://www.w3.org/2000/svg" width="98.59" height="137.288" viewBox="0 0 98.59 137.288">
  <path id="Path_49" data-name="Path 49" d="M3882.818,1474.877c-.724-.589-6.325,1.869-6.254,2.724s-3.908,9.149-3.908,9.149l-6.875-5.483,0,0c-.061-.2-.712-2.331-.744-2.712-.033-.4-1.195-1.1-1.735-1s.462.78.527.9c.179.338-.513.465-.513.465s-1.963-.63-2.006-1.271-1.385,1.121-1.227,1.367,3.362,2.825,3.825,3.386c0,0,8.894,10.167,9.527,10.433.556.233,2.537-3.271,4.408-5.6S3885.081,1476.717,3882.818,1474.877Z" transform="translate(-3811.359 -1421.084)" fill="#472d27"/>
  <path id="Path_50" data-name="Path 50" d="M4188.082,2063.69s1.222,1.192,1.25,1.63.108,5.126-.391,5.564-1.965.748-1.493,1.24c.355.372,3.1.292,4.911.193.53-.029,1.194-4.258,1.4-4.88.3-.9,1.046-2.936.77-3.565a5.3,5.3,0,0,0-1.692-1.525,8.315,8.315,0,0,1-1.874-2Z" transform="translate(-4098.677 -1935.137)" fill="#472d27"/>
  <path id="Path_51" data-name="Path 51" d="M4056.571,2109.946s1.094,3.09,1.1,3.1c.082.489.4,1.7.4,2.144,0,1.672-7.54-1.419-5.85-2.16a1.786,1.786,0,0,0,.683-1.172,3.913,3.913,0,0,0-.635-1.976Z" transform="translate(-3979.827 -1978.616)" fill="#472d27"/>
  <g id="Group_15" data-name="Group 15" transform="translate(62.886 73.796)">
    <path id="Path_52" data-name="Path 52" d="M3978.195,1639.321s-.55,5.539-.55,5.621c0,8.96-1.776,26.462-1.438,28.146.824,4.109,9.693,25.069,9.693,25.069l4.793-.573-5.145-25.328,1.2-9.867,3.253-19.966Z" transform="translate(-3976.164 -1639.321)" fill="#50bfa5"/>
    <path id="Path_53" data-name="Path 53" d="M4018.837,1649.9l.91,5.25,2.461,21.606,9.371,21.116s-1.318,3.073-3.263,3.5L4013.4,1679.7l-9.265-27.741.325-6.163Z" transform="translate(-4000.719 -1645.003)" fill="#96d9c9"/>
  </g>
  <path id="Path_54" data-name="Path 54" d="M3977.139,1427.116l6.647.678s.3-5.449.3-8.048c0-3.153-.269-7.215-.649-7.128a5.791,5.791,0,0,0-3.365,2.013C3977.11,1418.705,3977.139,1427.116,3977.139,1427.116Z" transform="translate(-3914.133 -1366.507)" fill="#b75742"/>
  <path id="Path_55" data-name="Path 55" d="M3984.509,1417.682c-.139.962-2.694,27.1-2.694,27.1,12.1,5.845,18.78,1.041,18.78,1.041s-.4-18.355.079-20.853c.313-1.653.705-12.636-.366-12.944a26.806,26.806,0,0,0-4.668-.992c-1.467-.152-7.163-.24-8.182.1A12.976,12.976,0,0,0,3984.509,1417.682Z" transform="translate(-3918.239 -1365)" fill="#f47458"/>
  <path id="Path_56" data-name="Path 56" d="M4189.252,2076.449s-2.817,7.931-3.92,8.314c-.293.1-1.7.36-1.963.981a2.713,2.713,0,0,0,0,.812h5.872s.743-3.494,1.036-5.03c0,0,1.554-3.751,1.381-4.092S4189.252,2076.449,4189.252,2076.449Z" transform="translate(-4095.147 -1949.268)" fill="#f47458"/>
  <path id="Path_57" data-name="Path 57" d="M4016.5,2138.252l-.863-2.727a7.5,7.5,0,0,1-2.72.639,27.45,27.45,0,0,1-2.676-.639c-3.618,1.191-6.583,1.769-6.044,2.727h12.3Z" transform="translate(-3937.833 -2001.129)" fill="#f47458"/>
  <g id="Group_16" data-name="Group 16" transform="translate(61.263 64.942)">
    <path id="Path_58" data-name="Path 58" d="M3963.679,1573.635a1.622,1.622,0,0,1-.183-.136c.215-2.561.177-5.042-.627-5.881l.379-.8c.931.721,1.374,2.634,1.2,5.741a5.328,5.328,0,0,1-.123.643C3964.055,1573.5,3963.81,1573.69,3963.679,1573.635Z" transform="translate(-3962.869 -1566.817)" fill="#472d27"/>
  </g>
  <path id="Path_59" data-name="Path 59" d="M4048.8,1368.44l.78,5.142s-2.849,6.122-4.549,5.591c-1.427-.445-.549-5.862-.549-5.862a14.836,14.836,0,0,0,.544-4.365C4044.8,1367.49,4048.8,1368.44,4048.8,1368.44Z" transform="translate(-3973.021 -1327.458)" fill="#472d27"/>
  <path id="Path_60" data-name="Path 60" d="M4050.148,1368.946c-.233-1.456,3.775-.506,3.775-.506l.065.426a2.387,2.387,0,0,1-.435.717,5.278,5.278,0,0,1-3.5,1.586A7.924,7.924,0,0,0,4050.148,1368.946Z" transform="translate(-3978.139 -1327.458)" fill="#5e453c"/>
  <g id="Group_17" data-name="Group 17" transform="translate(69.339 25.761)">
    <path id="Path_61" data-name="Path 61" d="M4037.963,1299.524c.113-.041.908,5.856-.6,7.479s-4.446,2.154-5.5.876c-1.166-1.414-1.107-7.752,1.237-9.421S4037.963,1299.524,4037.963,1299.524Z" transform="translate(-4030.862 -1291.578)" fill="#472d27"/>
    <path id="Path_62" data-name="Path 62" d="M4040.012,1276.246a6.515,6.515,0,0,1,3.417,1.949c.823.1,1.941.552,3.1,2.464a4.782,4.782,0,0,1-1.282,6.234,3.724,3.724,0,0,0-1.63,2.754l-.262-.764a4.272,4.272,0,0,1-.207-1.8,3.521,3.521,0,0,1,.268-1.081c.4-.853-.854-1.42-1.205-2.13-.27-.547-.283-1.8-.709-2.7l-.508-.69a3.233,3.233,0,0,0-2.321-.655C4037.522,1280.084,4037.687,1275.772,4040.012,1276.246Z" transform="translate(-4036.88 -1272.52)" fill="#0e2e35"/>
    <path id="Path_63" data-name="Path 63" d="M4073.251,1338.276c-.012.719.315,1.308.731,1.316s.762-.57.774-1.29-.315-1.308-.731-1.316S4073.264,1337.556,4073.251,1338.276Z" transform="translate(-4067.847 -1325.874)" fill="#472d27"/>
    <ellipse id="Ellipse_1" data-name="Ellipse 1" cx="1.893" cy="1.893" rx="1.893" ry="1.893" transform="translate(0.244 4.397)" fill="#0e2e35"/>
    <ellipse id="Ellipse_2" data-name="Ellipse 2" cx="1.893" cy="1.893" rx="1.893" ry="1.893" transform="translate(1.343 2.809)" fill="#0e2e35"/>
    <ellipse id="Ellipse_3" data-name="Ellipse 3" cx="1.893" cy="1.893" rx="1.893" ry="1.893" transform="translate(3.542 3.542)" fill="#0e2e35"/>
    <ellipse id="Ellipse_4" data-name="Ellipse 4" cx="1.893" cy="1.893" rx="1.893" ry="1.893" transform="translate(6.961 5.496)" fill="#0e2e35"/>
    <ellipse id="Ellipse_5" data-name="Ellipse 5" cx="1.893" cy="1.893" rx="1.893" ry="1.893" transform="translate(5.374 3.908)" fill="#0e2e35"/>
    <ellipse id="Ellipse_6" data-name="Ellipse 6" cx="1.893" cy="1.893" rx="1.893" ry="1.893" transform="translate(3.175 1.954)" fill="#0e2e35"/>
    <ellipse id="Ellipse_7" data-name="Ellipse 7" cx="1.893" cy="1.893" rx="1.893" ry="1.893" transform="translate(5.129 2.809)" fill="#0e2e35"/>
    <ellipse id="Ellipse_8" data-name="Ellipse 8" cx="1.893" cy="1.893" rx="1.893" ry="1.893" transform="translate(6.961 2.809)" fill="#0e2e35"/>
    <ellipse id="Ellipse_9" data-name="Ellipse 9" cx="1.893" cy="1.893" rx="1.893" ry="1.893" transform="translate(7.938 6.595)" fill="#0e2e35"/>
    <ellipse id="Ellipse_10" data-name="Ellipse 10" cx="1.893" cy="1.893" rx="1.893" ry="1.893" transform="translate(7.938 9.16)" fill="#0e2e35"/>
    <ellipse id="Ellipse_11" data-name="Ellipse 11" cx="1.893" cy="1.893" rx="1.893" ry="1.893" transform="translate(6.961 11.114)" fill="#0e2e35"/>
    <ellipse id="Ellipse_12" data-name="Ellipse 12" cx="1.893" cy="1.893" rx="1.893" ry="1.893" transform="translate(8.915 7.816)" fill="#0e2e35"/>
    <ellipse id="Ellipse_13" data-name="Ellipse 13" cx="1.893" cy="1.893" rx="1.893" ry="1.893" transform="translate(9.892 5.74)" fill="#0e2e35"/>
    <ellipse id="Ellipse_14" data-name="Ellipse 14" cx="1.893" cy="1.893" rx="1.893" ry="1.893" transform="translate(9.16 3.053)" fill="#0e2e35"/>
    <ellipse id="Ellipse_15" data-name="Ellipse 15" cx="1.893" cy="1.893" rx="1.893" ry="1.893" transform="translate(7.45 1.832)" fill="#0e2e35"/>
    <ellipse id="Ellipse_16" data-name="Ellipse 16" cx="1.893" cy="1.893" rx="1.893" ry="1.893" transform="translate(5.374 0.855)" fill="#0e2e35"/>
    <ellipse id="Ellipse_17" data-name="Ellipse 17" cx="1.893" cy="1.893" rx="1.893" ry="1.893" transform="translate(7.938 4.641)" fill="#0e2e35"/>
    <ellipse id="Ellipse_18" data-name="Ellipse 18" cx="1.893" cy="1.893" rx="1.893" ry="1.893" transform="translate(5.374 1.832)" fill="#0e2e35"/>
    <ellipse id="Ellipse_19" data-name="Ellipse 19" cx="1.893" cy="1.893" rx="1.893" ry="1.893" transform="translate(2.076 0.855)" fill="#0e2e35"/>
    <ellipse id="Ellipse_20" data-name="Ellipse 20" cx="1.893" cy="1.893" rx="1.893" ry="1.893" transform="translate(3.542 0)" fill="#0e2e35"/>
    <ellipse id="Ellipse_21" data-name="Ellipse 21" cx="1.893" cy="1.893" rx="1.893" ry="1.893" transform="translate(0 2.076)" fill="#0e2e35"/>
  </g>
  <path id="Path_64" data-name="Path 64" d="M4036.867,1360.315l-2.272-.118a.994.994,0,0,0,1.005.947C4036.817,1361.242,4036.867,1360.315,4036.867,1360.315Z" transform="translate(-3964.572 -1320.49)" fill="#77615a"/>
  <g id="Group_18" data-name="Group 18" transform="translate(0 0)">
    <path id="Path_65" data-name="Path 65" d="M3889.055,1459.122c.534-.547,1.032-1.111,1.5-1.686l9.92,9.688c.61.6.4,1.8-.469,2.688s-2.067,1.128-2.677.532l-9.92-9.687Q3888.252,1459.941,3889.055,1459.122Z" transform="translate(-3835.359 -1405.852)" fill="#0e2e35"/>
    <ellipse id="Ellipse_22" data-name="Ellipse 22" cx="25.021" cy="25.176" rx="25.021" ry="25.176" transform="matrix(0.699, -0.715, 0.715, 0.699, 0, 35.795)" fill="#c5ddf9" opacity="0.6"/>
    <path id="Path_66" data-name="Path 66" d="M3589.991,1210.628a25,25,0,0,1-15.93,7.8l-27.14-27.586c.006-.052.009-.1.015-.156a25.167,25.167,0,0,1,7.894-15.8Z" transform="translate(-3536.456 -1157.812)" fill="#fff" style="mix-blend-mode: soft-light;isolation: isolate"/>
    <path id="Path_67" data-name="Path 67" d="M3663.2,1119.938l25.1,25.511c-.012.772-.058,1.55-.142,2.333a25.226,25.226,0,0,1-3.152,9.8l-33.9-34.453A24.79,24.79,0,0,1,3663.2,1119.938Z" transform="translate(-3627.919 -1109.572)" fill="#fff" style="mix-blend-mode: soft-light;isolation: isolate"/>
    <path id="Path_68" data-name="Path 68" d="M3528.126,1141.961a28.287,28.287,0,1,0-.6-40.123A28.375,28.375,0,0,0,3528.126,1141.961Zm2.281-2.336a25.021,25.021,0,1,1,35.494-.31A25.1,25.1,0,0,1,3530.407,1139.625Z" transform="translate(-3512.396 -1086.233)" fill="#184655"/>
    <path id="Path_69" data-name="Path 69" d="M3541.7,1153.11a26.571,26.571,0,1,0-.563-37.688A26.653,26.653,0,0,0,3541.7,1153.11Zm1.083-1.108a25.021,25.021,0,1,1,35.493-.31A25.1,25.1,0,0,1,3542.787,1152Z" transform="translate(-3524.775 -1098.61)" fill="#50bfa5" opacity="0.5" style="mix-blend-mode: multiply;isolation: isolate"/>
    <path id="Path_70" data-name="Path 70" d="M3991.106,1559.319l1.542-1.6a4.019,4.019,0,0,0-.1-5.683l-28.641-27.767a4.019,4.019,0,0,0-5.683.1l-1.542,1.6a4.019,4.019,0,0,0,.1,5.683l28.641,27.767A4.018,4.018,0,0,0,3991.106,1559.319Z" transform="translate(-3895.185 -1463.536)" fill="#184655"/>
  </g>
  <path id="Path_71" data-name="Path 71" d="M4145.942,1488.983a.746.746,0,0,0,0-.168c-.179-1.81-1.682-17.01-1.934-17.656-.229-.583-6.97-10.224-6.97-10.224l-3.313,4.514,6.483,8.647c.146.549,2.483,10.81,2.483,10.81s.48,1.87.695,2.991c-.1.27-.194.525-.279.734a6.733,6.733,0,0,1-.7,1.122,7.7,7.7,0,0,0-.828,1.464c-.069.264-.192.813-.263,1.144s-.166.717-.182.9a1.725,1.725,0,0,1-.209.481.289.289,0,0,0,.341.417c.235-.078.419-.383.532-.573.319-.536.489-1.515.568-1.464s.359,1.713.4,1.9a20.651,20.651,0,0,0,.569,2.469c.189.352.44.294.506.073.057-.19-.209-2.889-.209-2.889s-.033-.344.118-.237.4,2.557.5,2.916.344.549.547.26c.247-.35-.178-2.949-.178-2.949s-.047-.327.092-.3.315,2.118.423,2.3a.275.275,0,0,0,.513-.056,12.813,12.813,0,0,0-.245-2.671s.02-.184.107-.123.363,1.831.543,1.994a.191.191,0,0,0,.277,0c.33-.225-.176-1.908-.171-2.745a20.509,20.509,0,0,1-.267-2.773C4145.909,1489.233,4145.93,1489.079,4145.942,1488.983Z" transform="translate(-4051.599 -1408.924)" fill="#472d27"/>
  <path id="Path_72" data-name="Path 72" d="M4121.171,1431.315l-5.758,3.866a62.552,62.552,0,0,0-4.987-6.548c-2.182-2.154.794-8.751,2.2-8.378C4115.771,1421.089,4121.171,1431.315,4121.171,1431.315Z" transform="translate(-4030.462 -1373.198)" fill="#f47458"/>
</svg>
