<svg xmlns="http://www.w3.org/2000/svg" width="161.797" height="142.856" viewBox="0 0 161.797 142.856">
  <g id="Group_14" data-name="Group 14" transform="translate(-30.898)">
    <path id="Path_21" data-name="Path 21" d="M2651.541,412.655s-3.247-3.307-9.276-.832-4.273,9.16-9,7.6-9.322-1.395-9.73,2.675c-.6,6.033-3.467,3.752-5.336,9.174-1.685,4.887.248,7.057,3.809,5.573,5.073-2.114,1.18,3.242,8.362,4.233s15.865-5.161,17.177-9.391a20.588,20.588,0,0,1,4.893-8.262C2653.988,421.689,2655.993,416.062,2651.541,412.655Z" transform="translate(-2491.238 -408.987)" fill="#163560"/>
    <path id="Path_22" data-name="Path 22" d="M2594.314,790.477l-.153,1.382a.981.981,0,0,0,.479.955l2.125,1.248a1.88,1.88,0,0,0,1.354.215l2.023-.444Z" transform="translate(-2470.672 -742.209)" fill="#163560"/>
    <g id="Group_11" data-name="Group 11" transform="translate(122.228 19.233)">
      <path id="Path_23" data-name="Path 23" d="M2701.447,614.341l-6.606-3.806a1.274,1.274,0,0,1-.467-1.735l12.994-22.557c1.291-2.241,5.482-5.277,7.723-3.986l.649.374c2.247,1.294,1.725,6.45.431,8.7l-12.988,22.546A1.274,1.274,0,0,1,2701.447,614.341Z" transform="translate(-2680.734 -578.378)" fill="#d86036"/>
      <path id="Path_24" data-name="Path 24" d="M2659.986,555.235l15.665.195-20.35,32.233-8.519-2.44Z" transform="translate(-2639.101 -554.926)" fill="#d86036"/>
      <path id="Path_25" data-name="Path 25" d="M2591.128,585.1l-6.607-3.806a1.274,1.274,0,0,1-.466-1.735L2597.048,557c1.291-2.241,5.481-5.277,7.723-3.986l.649.374c2.247,1.294,1.725,6.45.431,8.7l-12.987,22.546A1.275,1.275,0,0,1,2591.128,585.1Z" transform="translate(-2583.886 -552.707)" fill="#f77d48"/>
    </g>
    <path id="Path_26" data-name="Path 26" d="M1678.135,810.56l-.066.1-.658.986-59.5,89.244q-1,.169-2.052.33a48,48,0,0,1-16.91-.2,35.793,35.793,0,0,1-16.005-7.68l22.534-20.159,38.5-34.442,7.447-6.662,25.11-22.464.879.516h0l.029.017Z" transform="translate(-1552.042 -759.012)" fill="#e8f2ff"/>
    <path id="Path_27" data-name="Path 27" d="M2686.334,1068.945a16.081,16.081,0,0,0-7.158,3.472c-1.928,1.587-4.415,3.214-5.033,2.482-.3-.353-.5-2.664,2.052-4.362,2.451-1.629,1.878-5.069,4.272-5.488,1.635-.286,1.588,1.365,5.5-.131Z" transform="translate(-2540.743 -983.137)" fill="#233862"/>
    <path id="Path_28" data-name="Path 28" d="M2778.214,829.269c-.689,6.1-27.574,11.133-27.574,11.133s-.774-3.613,1.4-5.4c0,0,6.149-4.516,9-6.254a17.117,17.117,0,0,1,5.867-2.414c-.043-.239-1.018-.594-2.482-1.059h0c-4.539-1.44-13.762-3.924-14.375-7.217a4.322,4.322,0,0,1-.061-.959c.172-4.554,6.178-12.086,6.178-12.086l5.854-2.029s.868,6.456,2.859,8.014S2778.9,823.166,2778.214,829.269Z" transform="translate(-2607.464 -753.19)" fill="#f99746"/>
    <path id="Path_29" data-name="Path 29" d="M2764.417,905.264h0c-4.539-1.44-13.762-3.925-14.375-7.217a4.323,4.323,0,0,1-.061-.959,5.127,5.127,0,0,1,2.985-2.912c2.722-.831,2.319,5.25,5.34,7.085S2764.417,905.264,2764.417,905.264Z" transform="translate(-2607.464 -833.177)" fill="#ed7d2b"/>
    <path id="Path_30" data-name="Path 30" d="M2900.992,451.809s15.761-4.448,18.062-5.458,9.762-10.767,9.762-10.767l2.169,1.268s-2.338,9.113-9.081,13.809c-2.632,1.833-17.446,7.645-17.446,7.645Z" transform="translate(-2740.041 -430.654)" fill="#ffb27d"/>
    <path id="Path_31" data-name="Path 31" d="M2417.715,1169.326a18.881,18.881,0,0,0-3.251,4.76c-.938,2.314-2.312,4.948-3.206,4.606-.432-.165-1.729-2.09-.313-4.811,1.358-2.611-.806-5.346,1.087-6.87,1.293-1.041,2.05.427,4.749-2.771Z" transform="translate(-2309.27 -1070.331)" fill="#233862"/>
    <path id="Path_32" data-name="Path 32" d="M2504.4,754.445s-16.884,21.435-24.279,28.063c-3.927,3.52-22.553,19.089-22.553,19.089a8.206,8.206,0,0,1-1.67-2.363,4.738,4.738,0,0,1-.123-3.481s7.944-15.5,15.481-19.967c5.222-3.092,8.4-22.36,19.616-28.951S2504.4,754.445,2504.4,754.445Z" transform="translate(-2348.969 -702.364)" fill="#f99746"/>
    <path id="Path_33" data-name="Path 33" d="M2713.162,575.626c-5.273,10.8-6.656,15.9-8.516,17.012s-19.792-1.529-21.293-4.231a2.486,2.486,0,0,1,.185-2.415h0c1.259-2.464,5.021-5.5,6.969-8.643a42.618,42.618,0,0,0,2.869-5.359c3.309-7.568.615-9.686,2.223-10.682,2.816-1.744,15.954-5.581,20.095-4.167,2.028.693-.565,4.87-.377,8.312A18.016,18.016,0,0,1,2713.162,575.626Z" transform="translate(-2548.77 -537.095)" fill="#739af0"/>
    <path id="Path_34" data-name="Path 34" d="M2627.708,598s-11.977,8.215-14.592,12.512-6.439,14.327-6.439,14.327.137.645,2.406.263c0,0,7.492-11.25,8.672-12.381s11.616-6.861,11.616-6.861Z" transform="translate(-2481.665 -573.238)" fill="#ffb27d"/>
    <path id="Path_35" data-name="Path 35" d="M2909.926,552.187a12.831,12.831,0,0,1-3.851,5.274l-5.71-9.137s5.986-.974,9.3-1.656A6.752,6.752,0,0,1,2909.926,552.187Z" transform="translate(-2739.49 -528.172)" fill="#739af0"/>
    <path id="Path_36" data-name="Path 36" d="M2735.712,568.966a33.178,33.178,0,0,0-10.048,3.284,68.866,68.866,0,0,0-6.448,5.1,8.983,8.983,0,0,0,6.628,5.516c5.331,1.276,4.193-8.955,4.193-8.955Z" transform="translate(-2580.462 -547.747)" fill="#739af0"/>
    <path id="Path_37" data-name="Path 37" d="M3128.273,400.229s.856-5.089,1.938-5.026,1.9,1.765,2.044,2.726-1.813,3.568-1.813,3.568Z" transform="translate(-2939.568 -395.202)" fill="#ffb27d"/>
    <path id="Path_38" data-name="Path 38" d="M2608.753,813.189a9.02,9.02,0,0,1,.046,3.274,2.567,2.567,0,0,1-2.157,1.625c-.73-.059.506-1.772.035-2.741s-1.3-3.023.071-3.516S2608.753,813.189,2608.753,813.189Z" transform="translate(-2481.067 -760.883)" fill="#ffb27d"/>
    <path id="Path_39" data-name="Path 39" d="M2623.488,817.112a17.637,17.637,0,0,0,.843,2.007c.307.509-.876-.248-1.168-.727S2623.488,817.112,2623.488,817.112Z" transform="translate(-2496.069 -765.591)" fill="#ffb27d"/>
    <path id="Path_40" data-name="Path 40" d="M2697.96,682.872c-.117,2.53-2.729,7.41-5.682,8.355a17.127,17.127,0,0,0-5.691,3.648c1.259-2.464,5.02-5.5,6.968-8.643a42.461,42.461,0,0,0,2.869-5.359C2697.124,680.8,2698.041,681.128,2697.96,682.872Z" transform="translate(-2551.817 -645.98)" fill="#6385db"/>
    <g id="Group_12" data-name="Group 12" transform="translate(142.021 21.709)">
      <path id="Path_41" data-name="Path 41" d="M2754.931,581.967c-1.562,4.716-5.881,6.587-7.684,7.178-.368.12-.63.187-.744.214l-.053.013-.478-2.156a9.448,9.448,0,0,0,1.443-.5h0a9.365,9.365,0,0,0,5.417-5.446c1.433-4.328-2.232-7.357-2.7-7.721a24.535,24.535,0,0,1,2.616-.571A9.064,9.064,0,0,1,2754.931,581.967Z" transform="translate(-2745.973 -572.979)" fill="#d86036"/>
    </g>
    <path id="Path_42" data-name="Path 42" d="M2879.667,556.692s6.057.784,7.409,8.149a2.682,2.682,0,0,0,1.607-1.607s-1.66-6.538-8.023-7.7c-.369-.067-1.878-.464-1.878-.464l-.059.343a8.75,8.75,0,0,0,.074.977C2878.842,556.5,2879.667,556.692,2879.667,556.692Z" transform="translate(-2720.491 -535.552)" fill="#d86036"/>
    <g id="Group_13" data-name="Group 13" transform="translate(152.437 16.292)">
      <path id="Path_43" data-name="Path 43" d="M2831.288,534.048a16.453,16.453,0,0,0,.96-5.429l.337.077,5.661,1.3s-.182,1.788-.236,3.476c0,.014,0,.028,0,.042C2837.827,538.7,2830.883,535.083,2831.288,534.048Z" transform="translate(-2831.271 -528.619)" fill="#ffb27d"/>
      <path id="Path_44" data-name="Path 44" d="M2847.691,530.543l-.148,1.784c-3.184-.184-4.87-1.448-5.512-3.08Z" transform="translate(-2840.717 -529.17)" fill="#e8945b"/>
    </g>
    <path id="Path_45" data-name="Path 45" d="M2830.442,452.915s-7.313,1.848-8.394-2.724-2.753-7.413,1.871-8.786,5.946.156,6.678,1.594S2832.316,452.317,2830.442,452.915Z" transform="translate(-2669.679 -435.292)" fill="#ffb27d"/>
    <path id="Path_46" data-name="Path 46" d="M2815.126,433.72s-.748,5.838-3.646,7.357-4.431,1.007-4.431,1.007a8.972,8.972,0,0,0,1.643-5.833S2813.009,431.523,2815.126,433.72Z" transform="translate(-2657.569 -428.505)" fill="#163560"/>
    <path id="Path_47" data-name="Path 47" d="M2869.953,433.707a4.679,4.679,0,0,1,2.491,1.149,7.593,7.593,0,0,1,1.98,3.965s.656-4-1.531-5.666C2870.574,431.393,2869.953,433.707,2869.953,433.707Z" transform="translate(-2712.792 -427.94)" fill="#163560"/>
    <path id="Path_48" data-name="Path 48" d="M2882.472,514.166s.254.509,1.575.111c0,0,1.109-.334.936-.919A3.721,3.721,0,0,0,2882.472,514.166Z" transform="translate(-2723.782 -498.92)" fill="#fff"/>
  </g>
</svg>
