<svg xmlns="http://www.w3.org/2000/svg" width="182.002" height="60.92" viewBox="0 0 182.002 60.92">
  <g id="Group_2" data-name="Group 2" transform="translate(-16.16 -29.499)">
    <path id="Path_4" data-name="Path 4" d="M49.081,35.6a2.716,2.716,0,0,0-2,.84,2.774,2.774,0,0,0-.837,2.03,2.846,2.846,0,0,0,5.691,0,2.863,2.863,0,0,0-2.858-2.87Z" transform="translate(8.794 1.784)" fill="#7efafe"/>
    <g id="Group_1" data-name="Group 1" transform="translate(21.887 34.188)">
      <path id="Path_5" data-name="Path 5" d="M35,40.328a12.889,12.889,0,0,0-6.084,1.442,13.843,13.843,0,0,0-4.327,3.678V41.022h-4V78.327h4V64.309a14.924,14.924,0,0,0,4.482,3.5,13.871,13.871,0,0,0,15.97-2.862,14.223,14.223,0,0,0,4.121-10.271A13.962,13.962,0,0,0,45,44.539,13.6,13.6,0,0,0,35,40.328ZM45.114,54.785a10.746,10.746,0,0,1-1.424,5.31,10.4,10.4,0,0,1-3.813,3.941,9.972,9.972,0,0,1-5.111,1.409,10.661,10.661,0,0,1-5.263-1.4,9.745,9.745,0,0,1-3.825-3.779,10.861,10.861,0,0,1-1.334-5.382,10.5,10.5,0,0,1,3-7.626A9.966,9.966,0,0,1,34.716,44.2,10.173,10.173,0,0,1,43.7,49.479,10.705,10.705,0,0,1,45.114,54.785Z" transform="translate(-20.592 -31.024)" fill="#7efafe"/>
      <rect id="Rectangle_2" data-name="Rectangle 2" width="3.998" height="27.455" transform="translate(34.001 9.998)" fill="#7efafe"/>
      <path id="Path_6" data-name="Path 6" d="M78.883,60.819A11.607,11.607,0,0,1,69.4,65.444a11.77,11.77,0,0,1-5.718-1.4,10.286,10.286,0,0,1-4-3.93,10.7,10.7,0,0,1-1.462-5.4,10.113,10.113,0,0,1,3.171-7.5,11.018,11.018,0,0,1,7.982-3.09,11.3,11.3,0,0,1,9.5,4.62l.147.2L82.2,46.968l-.134-.225a11.951,11.951,0,0,0-3.011-3.417,14.7,14.7,0,0,0-4.3-2.167,16.744,16.744,0,0,0-5.241-.831,16.1,16.1,0,0,0-7.825,1.915,14.159,14.159,0,0,0-5.509,5.331,14.43,14.43,0,0,0-2,7.4,13.515,13.515,0,0,0,4.288,10.067,14.956,14.956,0,0,0,10.776,4.135,16.917,16.917,0,0,0,7.53-1.628,13.309,13.309,0,0,0,5.288-4.606l.149-.222-3.175-2.087Z" transform="translate(-10.775 -31.024)" fill="#7efafe"/>
      <path id="Path_7" data-name="Path 7" d="M87.933,33.128h-4v10H79.207v3.527h4.727V70.581h4V46.653h5.492V43.126H87.933Z" transform="translate(-3.461 -33.128)" fill="#7efafe"/>
      <path id="Path_8" data-name="Path 8" d="M117.5,45.441a13.671,13.671,0,0,0-4.32-3.673,13.048,13.048,0,0,0-6.131-1.441,13.629,13.629,0,0,0-10.012,4.211A13.96,13.96,0,0,0,92.88,54.675,14.218,14.218,0,0,0,97,64.946a13.915,13.915,0,0,0,16,2.862,14.9,14.9,0,0,0,4.5-3.5v4.17h3.947V41.022H117.5Zm-2.78,1.818a10.5,10.5,0,0,1,3,7.626,10.857,10.857,0,0,1-1.334,5.382,9.806,9.806,0,0,1-3.816,3.779,10.629,10.629,0,0,1-5.256,1.4,10.036,10.036,0,0,1-5.145-1.409,10.422,10.422,0,0,1-3.821-3.941,10.628,10.628,0,0,1-.009-10.617,10.163,10.163,0,0,1,9-5.275A9.987,9.987,0,0,1,114.722,47.26Z" transform="translate(0.535 -31.024)" fill="#7efafe"/>
      <path id="Path_9" data-name="Path 9" d="M127.346,44.1c1.693,0,3.457.881,5.244,2.622l.191.186,2.6-2.687-.191-.185c-2.547-2.463-5.126-3.713-7.666-3.713a7.589,7.589,0,0,0-5.483,2.105,7.1,7.1,0,0,0-2.176,5.289,7.256,7.256,0,0,0,1.371,4.337,14.205,14.205,0,0,0,5.051,3.794,15.462,15.462,0,0,1,4.281,2.8,3.739,3.739,0,0,1,.9,2.477A3.846,3.846,0,0,1,130.1,64.08a4.829,4.829,0,0,1-3.366,1.268c-1.9,0-3.724-.977-5.434-2.908l-.2-.226-2.521,2.87.136.174a9.992,9.992,0,0,0,3.6,2.871,10.52,10.52,0,0,0,4.568,1.043,8.25,8.25,0,0,0,6.008-2.38,7.88,7.88,0,0,0,2.407-5.806,7.317,7.317,0,0,0-1.415-4.39,15.825,15.825,0,0,0-5.344-3.939,13.915,13.915,0,0,1-4.091-2.78,3.571,3.571,0,0,1-.929-2.329,3.167,3.167,0,0,1,1.119-2.4A3.865,3.865,0,0,1,127.346,44.1Z" transform="translate(8.044 -31.024)" fill="#7efafe"/>
      <path id="Path_10" data-name="Path 10" d="M159.514,41.022v4.42a13.609,13.609,0,0,0-4.321-3.671,13.017,13.017,0,0,0-6.129-1.442,13.631,13.631,0,0,0-10.012,4.211,13.971,13.971,0,0,0-4.159,10.135,14.221,14.221,0,0,0,4.125,10.271,13.915,13.915,0,0,0,16,2.862,14.94,14.94,0,0,0,4.5-3.5v4.169h3.948V41.022Zm.222,13.863a10.865,10.865,0,0,1-1.335,5.382,9.829,9.829,0,0,1-3.815,3.779,10.638,10.638,0,0,1-5.258,1.4,10.028,10.028,0,0,1-5.143-1.409,10.412,10.412,0,0,1-3.821-3.941,10.619,10.619,0,0,1-.009-10.617,10.163,10.163,0,0,1,9-5.275,9.991,9.991,0,0,1,7.383,3.058A10.5,10.5,0,0,1,159.736,54.885Z" transform="translate(12.814 -31.024)" fill="#7efafe"/>
    </g>
    <path id="Path_11" data-name="Path 11" d="M18.013,31.351h4.3V29.5H16.16v6.144h1.853Z" fill="#7efafe"/>
    <path id="Path_12" data-name="Path 12" d="M18.013,71.885H16.16v6.146h6.148V76.176h-4.3Z" transform="translate(0 12.388)" fill="#7efafe"/>
    <path id="Path_13" data-name="Path 13" d="M76.67,35.643h1.855V29.5h-6.15v1.852H76.67Z" transform="translate(16.43)" fill="#7efafe"/>
    <path id="Path_14" data-name="Path 14" d="M76.67,76.176H72.375v1.855h6.15V71.885H76.67Z" transform="translate(16.43 12.388)" fill="#7efafe"/>
  </g>
</svg>
