<svg id="Group_397" data-name="Group 397" xmlns="http://www.w3.org/2000/svg" width="98.441" height="102.205" viewBox="0 0 98.441 102.205">
  <path id="Path_163" data-name="Path 163" d="M727.368,1743.315l2.952-.011c-.39-12.882-.733-32.446-.082-33.543a.483.483,0,0,1-.2.148l-2.4-.625c-.387.195-.621.312-.7,5.791-.042,2.819-.026,6.712.047,11.571C727.116,1734.916,727.366,1743.232,727.368,1743.315Z" transform="translate(-702.539 -1642.962)" fill="#355389"/>
  <path id="Path_164" data-name="Path 164" d="M677.515,1882.685h19.917a1.661,1.661,0,0,1,1.661,1.661h0a.29.29,0,0,1-.29.29H676.144a.29.29,0,0,1-.29-.29h0A1.661,1.661,0,0,1,677.515,1882.685Z" transform="translate(-661.335 -1782.489)" fill="#355389"/>
  <path id="Path_165" data-name="Path 165" d="M722.513,1874.3h2.44a1.307,1.307,0,0,1,1.307,1.307h0a1.307,1.307,0,0,1-1.307,1.307h-2.44a1.307,1.307,0,0,1-1.307-1.307h0A1.307,1.307,0,0,1,722.513,1874.3Z" transform="translate(-697.361 -1775.741)" fill="#355389"/>
  <rect id="Rectangle_11" data-name="Rectangle 11" width="1.179" height="58.723" transform="translate(95.768 43.387)" fill="#13375b"/>
  <path id="Path_166" data-name="Path 166" d="M709.827,1380.7a15.807,15.807,0,0,0-1.444-7.617,6.458,6.458,0,0,0-5.757-3.28c-7.2-.009-8.114,9.5-12.7,13.17-1.4,1.121-2.965,2.034-4.29,3.243-4.892,4.464-2.688,12.727,1.8,16.64,3.117,2.716,8.016,4.259,11.858,2.136a12.081,12.081,0,0,0,4.612-4.969,67.9,67.9,0,0,0,3.626-9.222A34.413,34.413,0,0,0,709.827,1380.7Z" transform="translate(-673.456 -1369.803)" fill="#13375b"/>
  <path id="Path_167" data-name="Path 167" d="M585.639,1504.817l-15.664-4.367s-3.3-4.433-7.546-10.38c-1.388,1.374-2.16,3.485-3.558,4.845l10.369,11.469a1.98,1.98,0,0,0,1.462.652l14.394.048,4.926.393v-3.153Z" transform="translate(-529.411 -1466.575)" fill="#f48c7f"/>
  <path id="Path_168" data-name="Path 168" d="M677.155,1492.888s-5.376-5.512-6.759-7.907.942-.836,3.317-1.466c.9-.239.672-5.51,2.372-3.8a78.233,78.233,0,0,1,6.3,7.726Z" transform="translate(-643.476 -1457.971)" fill="#96d9c9"/>
  <path id="Path_169" data-name="Path 169" d="M695.562,1467.735s-4.825-.953-7.026.887.472,18.193.469,20.9-1.512,10.37-1.512,10.37,14.622,2.559,16.945-1.51c0,0,.661-15.505.562-17.455s-2.266-9.924-2.865-10.778S695.562,1467.735,695.562,1467.735Z" transform="translate(-669.527 -1448.405)" fill="#50bfa5"/>
  <path id="Path_170" data-name="Path 170" d="M715.351,1430.1s-.025.144-.071.39a37.1,37.1,0,0,1-1.631,6.158c-.688,1.3,2.355,5.437,5.284,4.932.872-.151-.737-3.8-.66-4.19.148-.741.349-1.751.554-2.787l.344-1.734c.313-1.583.569-2.877.569-2.877Z" transform="translate(-689.346 -1418.233)" fill="#f7a491"/>
  <path id="Path_171" data-name="Path 171" d="M713.684,1430.49c.046-.246.071-.39.071-.39l4.389-.109s-.255,1.295-.569,2.877l-.342,1.724a4.113,4.113,0,0,1-2.1-1.049,5.522,5.522,0,0,1-1.587-2.356C713.6,1430.911,713.65,1430.672,713.684,1430.49Z" transform="translate(-687.75 -1418.233)" fill="#f47458"/>
  <path id="Path_172" data-name="Path 172" d="M703.869,1379.54a3.96,3.96,0,0,0-3.365,1.435c-1.3,1.674-2.694,6.849.527,9.663s6.4-.371,6.876-3.749S708.562,1379.418,703.869,1379.54Z" transform="translate(-674.91 -1377.628)" fill="#f7a491"/>
  <path id="Path_173" data-name="Path 173" d="M695.713,1409.357c-.385.746-1.03,1.159-1.442.922s-.434-1.033-.049-1.779,1.03-1.159,1.442-.922S696.1,1408.611,695.713,1409.357Z" transform="translate(-661.764 -1400.145)" fill="#f7a491"/>
  <path id="Path_174" data-name="Path 174" d="M726.688,1376.541s-2.764,4.922-4.741,5.149-2.237,2.843-2.237,2.843.707-6.026,2.664-7.189A7.283,7.283,0,0,1,726.688,1376.541Z" transform="translate(-697.498 -1375.182)" fill="#13375b"/>
  <path id="Path_175" data-name="Path 175" d="M743.181,1403.725c.161.874-.163,1.676-.722,1.79s-1.144-.5-1.3-1.375.163-1.676.722-1.791S743.02,1402.851,743.181,1403.725Z" transform="translate(-718.213 -1395.981)" fill="#f7a491"/>
  <g id="Group_395" data-name="Group 395" transform="translate(17.134 49.903)">
    <path id="Path_176" data-name="Path 176" d="M655.86,1810.747s-4.438,5.322-4.468,5.785.176,5.517.7,5.98,2.079.792,1.58,1.313c-.377.394-3.276.309-5.2.2-.561-.031-1.264-4.505-1.486-5.163-.323-.955-1.107-3.107-.814-3.772a5.588,5.588,0,0,1,1.79-1.613c1.013-.654,4.889-6.047,4.889-6.047Z" transform="translate(-629.426 -1771.841)" fill="#f48c7f"/>
    <path id="Path_177" data-name="Path 177" d="M656.7,1838.225s2.98,8.392,4.147,8.8c.31.108,1.8.38,2.076,1.038a2.838,2.838,0,0,1,0,.859h-6.212s-.786-3.7-1.1-5.322c0,0-1.644-3.969-1.462-4.33S656.7,1838.225,656.7,1838.225Z" transform="translate(-638.088 -1796.618)" fill="#b75742"/>
    <path id="Path_178" data-name="Path 178" d="M431.391,1826.952s3.625,5.1,3.306,6.717c-.171.865-.931,2-.495,2.809a2.187,2.187,0,0,0,.935,1.017l11.306.182c.616.01.209-.386-.288-.75a22.777,22.777,0,0,0-4.065-2.244c-.169-.082-.786-.473-1.008-.609a7.821,7.821,0,0,1-1.617-1.426c-.812-.9-4.382-8.252-4.382-8.252Z" transform="translate(-378.371 -1785.49)" fill="#f7a491"/>
    <path id="Path_179" data-name="Path 179" d="M434.239,1872.892a10.253,10.253,0,0,1-6.437-.252,5.177,5.177,0,0,0-.517,2.686c.274.8.665.979,1.011.988,2.731.072,10,.169,12.087.2a.34.34,0,0,0,.264-.558C440.13,1875.337,434.462,1873.028,434.239,1872.892Z" transform="translate(-371.53 -1824.309)" fill="#b75742"/>
    <path id="Path_180" data-name="Path 180" d="M583.385,1635.228a80.9,80.9,0,0,1-5.633,5.934c-1.145.811-12.13,21.041-12.13,21.041l3.914,2.857s9.818-12.242,14.429-18.79c3.9-5.537,2.463-5.186,4.755-8.556a4.5,4.5,0,0,0-.688-5.869q-.311-.281-.677-.587c-3.394-2.829-26.656-6.012-26.656-6.012L545.82,1626.7s12.156,8.525,12.61,8.752,16.787,2.609,17.128,2.609S583.385,1635.228,583.385,1635.228Z" transform="translate(-543.475 -1625.246)" fill="#b75742"/>
    <path id="Path_181" data-name="Path 181" d="M481.01,1631.09s-2.552,7.656,1.276,11.229,26.571,3.176,34.057,3.176c0,0,3.063,8.394,3.4,9.755s15.2,18.943,15.2,18.943l4.083-2.609s-15.993-31.079-17.241-32.441-19.056-6.806-23.48-8.053S481.01,1631.09,481.01,1631.09Z" transform="translate(-480.177 -1629.502)" fill="#f47458"/>
  </g>
  <path id="Path_182" data-name="Path 182" d="M630.014,1502.129l-13.581-3s-4.912-6.311-9.628-11.742c-1.388,1.374-2.16,3.485-3.558,4.845l10.369,11.469a1.98,1.98,0,0,0,1.462.652l14.394.048,4.926.392v-3.152Z" transform="translate(-582.455 -1464.412)" fill="#f7a491"/>
  <path id="Path_183" data-name="Path 183" d="M721.739,1484.181s-5.376-5.512-6.759-7.907-.357-6.407,2.018-7.037,9.969,9.5,9.969,9.5Z" transform="translate(-696.729 -1449.789)" fill="#96d9c9"/>
  <g id="Group_396" data-name="Group 396" transform="translate(31.84 22.257)">
    <path id="Path_184" data-name="Path 184" d="M519.005,1483.733h-22.4a1.46,1.46,0,0,0-1.351.906l-6.9,16.821H476.011a.625.625,0,0,0-.625.625h0a.625.625,0,0,0,.625.625h35.144a2.453,2.453,0,0,0,2.238-1.449l6.944-15.469A1.461,1.461,0,0,0,519.005,1483.733Z" transform="translate(-475.386 -1483.733)" fill="#b75742"/>
    <path id="Path_185" data-name="Path 185" d="M546.866,1527.163a1.233,1.233,0,1,1-.924-1.608A1.318,1.318,0,0,1,546.866,1527.163Z" transform="translate(-515.305 -1517.368)" fill="#fff"/>
  </g>
  <path id="Path_186" data-name="Path 186" d="M366.654,1583.707h66.917a1.419,1.419,0,0,0,1.419-1.419h0a1.419,1.419,0,0,0-1.419-1.418H366.654a1.419,1.419,0,0,0-1.419,1.418h0A1.419,1.419,0,0,0,366.654,1583.707Z" transform="translate(-336.548 -1539.635)" fill="#184655"/>
  <path id="Path_187" data-name="Path 187" d="M717.559,1426.234l-3.035-.157a1.328,1.328,0,0,0,1.343,1.264C717.492,1427.472,717.559,1426.234,717.559,1426.234Z" transform="translate(-687.355 -1415.083)" fill="#fff"/>
  <path id="Path_188" data-name="Path 188" d="M684.664,1648.394l-1.37-5.7a9.255,9.255,0,0,0-8.592-7.058l-17.358-.7-.536-1.767,17.964.726a11.006,11.006,0,0,1,10.217,8.394l1.456,6.062C685.952,1648.365,685.351,1648.381,684.664,1648.394Z" transform="translate(-644.966 -1581.712)" fill="#355389"/>
  <path id="Path_189" data-name="Path 189" d="M651.106,1557.26s23.847.408,26.334,0,3.562,2.709,2.82,4.341-2.783,2.264-5.789,2.412-28.016.854-28.721.186c-.576-.545-8.158-26.466-10.916-35.946a3.575,3.575,0,0,1,2.429-4.43h0a3.579,3.579,0,0,1,4.433,2.4Z" transform="translate(-634.691 -1493.617)" fill="#184655"/>
  <rect id="Rectangle_12" data-name="Rectangle 12" width="1.179" height="58.723" transform="translate(30.1 43.387)" fill="#13375b"/>
  <rect id="Rectangle_13" data-name="Rectangle 13" width="66.552" height="0.632" transform="translate(30.394 47.188)" fill="#13375b"/>
</svg>
